<svg xmlns="http://www.w3.org/2000/svg" xmlns:xlink="http://www.w3.org/1999/xlink" viewBox="0 0 64 56.28"><defs><style>.a{fill:url(#a);}.b{fill:none;}.c{fill:#341a6e;}.d{fill:url(#b);}.e{fill:url(#c);}.f{fill:url(#d);}.g{fill:url(#e);}.h{fill:url(#f);}.i{fill:url(#g);}</style><linearGradient id="a" x1="228.9" y1="271.41" x2="249.18" y2="271.41" gradientTransform="matrix(1, 0, 0, -1, -218.49, 280.33)" gradientUnits="userSpaceOnUse"><stop offset="0" stop-color="#b77af4"/><stop offset="1" stop-color="#773adc"/></linearGradient><linearGradient id="b" x1="250.81" y1="271.23" x2="271.06" y2="271.23" xlink:href="#a"/><linearGradient id="c" x1="218.53" y1="252.36" x2="238.77" y2="252.36" xlink:href="#a"/><linearGradient id="d" x1="240.37" y1="252.49" x2="260.62" y2="252.49" xlink:href="#a"/><linearGradient id="e" x1="262.21" y1="252.33" x2="282.49" y2="252.33" xlink:href="#a"/><linearGradient id="f" x1="228.65" y1="233.11" x2="248.93" y2="233.11" xlink:href="#a"/><linearGradient id="g" x1="250.53" y1="232.97" x2="270.81" y2="232.97" xlink:href="#a"/></defs><polygon class="a" points="20.53 0 10.41 1.88 10.41 15.68 20.53 17.84 30.69 13.77 30.69 3.47 20.53 0"/><path class="b" d="M239.41,239.3l9.28-3.75a.71.71,0,0,0,.42-.5v-9.34a.75.75,0,0,0-.46-.64l-9.38-3.19h-.42l-9.21,1.7a.72.72,0,0,0-.53.64v12.49a.68.68,0,0,0,.53.68l9.31,1.94A1.18,1.18,0,0,0,239.41,239.3Z" transform="translate(-218.49 -221.67)"/><path class="c" d="M228.9,223.55v13.8l10.23,2.16v-17.7Zm4.32,12.74-2.87-.57V225.1l2.87-.46Zm4.46.81-3.29-.53V224.43l3.29-.56Z" transform="translate(-218.49 -221.67)"/><polygon class="d" points="42.44 0.18 32.32 2.05 32.32 15.86 42.44 18.02 52.57 13.91 52.57 3.65 42.44 0.18"/><path class="c" d="M250.81,223.72v13.81L261,239.69V222Zm4.28,12.75-2.86-.57V225.28l2.86-.46Zm4.46.81-3.29-.53V224.61l3.29-.6Z" transform="translate(-218.49 -221.67)"/><polygon class="e" points="10.16 19.04 0.04 20.92 0.04 34.73 10.16 36.88 20.32 32.81 20.32 22.51 10.16 19.04"/><path class="c" d="M218.49,242.59v13.7l10.23,2.16v-17.7Zm4.28,12.78-2.86-.6V244.15l2.86-.5Zm4.5.92-3.29-.53V243.48l3.29-.57Z" transform="translate(-218.49 -221.67)"/><polygon class="f" points="32 18.9 21.88 20.78 21.88 34.58 32 36.78 42.12 32.67 42.12 22.37 32 18.9"/><path class="c" d="M240.37,242.45v13.84l10.19,2.16v-17.7Zm4.28,12.78-2.87-.6V244l2.87-.5Zm4.46.78-3.29-.53V243.33l3.29-.56Z" transform="translate(-218.49 -221.67)"/><polygon class="g" points="53.84 19.08 43.72 20.96 43.72 34.76 53.84 36.92 64 32.85 64 22.55 53.84 19.08"/><path class="c" d="M262.21,242.63v13.66l10.23,2.16v-17.7Zm4.32,12.78-2.87-.61V244.18l2.87-.49Zm4.46.77-3.29-.53V243.51l3.29-.57Z" transform="translate(-218.49 -221.67)"/><polygon class="h" points="20.28 38.3 10.16 40.14 10.16 53.95 20.28 56.14 30.44 52.03 30.44 41.77 20.28 38.3"/><path class="b" d="M239.16,277.53,248.4,274a.64.64,0,0,0,.43-.64v-9.2a.71.71,0,0,0-.46-.78L239,260.18a.61.61,0,0,0-.42,0l-9.21,1.67a.66.66,0,0,0-.56.67v12.53a.66.66,0,0,0,.53.67l9.31,1.81A.82.82,0,0,0,239.16,277.53Z" transform="translate(-218.49 -221.67)"/><path class="c" d="M228.65,261.81v13.81l10.23,2.19v-18ZM233,274.59l-2.87-.6V263.37l2.87-.5Zm4.46.82-3.29-.54V262.7l3.29-.57Z" transform="translate(-218.49 -221.67)"/><polygon class="i" points="42.16 38.44 32.03 40.32 32.03 54.12 42.16 56.28 52.32 52.21 52.32 41.91 42.16 38.44"/><path class="c" d="M250.53,262v13.8L260.76,278v-17.7Zm4.32,12.78-2.87-.6V263.55l2.87-.5Zm4.46.78L256,275V262.87l3.3-.56Z" transform="translate(-218.49 -221.67)"/></svg>